<?xml version="1.0" encoding="utf-8"?>
<!-- Generator: Adobe Illustrator 22.1.0, SVG Export Plug-In . SVG Version: 6.00 Build 0)  -->
<svg version="1.1" id="Calque_1" xmlns="http://www.w3.org/2000/svg" xmlns:xlink="http://www.w3.org/1999/xlink" x="0px" y="0px"
	 viewBox="0 0 512 512" style="enable-background:new 0 0 512 512;" xml:space="preserve">
<style type="text/css">
	.st0{fill:none;stroke:#FFFFFF;stroke-width:3;}
</style>
<g transform="translate(0,0)">
	<g>
		<path d="M240.1,19.6c-56.7,0.4-110.9,29-151.6,72.3C35.1,148.7,6.6,229.8,27.5,302c16.3-8.8,32.8-16,48.9-21.4
			c-6.3-123.2,89.2-210.9,200-210.3c4.3-13.4,10.3-27.3,18.1-41.9c-16.3-5.4-32.7-8.4-49-8.8C243.8,19.6,241.9,19.6,240.1,19.6
			L240.1,19.6z M271.3,89c-97.6,1.7-179.9,77.1-176.4,186.3c11-2.7,21.8-4.6,32.3-5.4c14.6-1.2,28.7-0.5,41.8,2.4L278.3,163
			c-5.3-12.1-8.5-25-9.3-38.8c-0.7-11.3,0.1-23,2.6-35.2C271.5,89,271.4,89,271.3,89L271.3,89z M332.1,149.7l-16.9,16.9l30.5,30.4
			l16.8-16.8L332.1,149.7L332.1,149.7z M295,172.7L175.6,292.1l44.6,44.6l119.3-119.3L295,172.7z M484.9,218.8
			c-14.5,7.8-28.3,13.8-41.6,18.1c0.8,111-87.2,206.8-210.7,200.3c-5.4,16.1-12.6,32.5-21.3,48.7c72.2,20.9,153.3-7.6,210.1-61
			C478.5,371.2,509.9,294.1,484.9,218.8L484.9,218.8z M348.9,234.4L240.7,342.6c3.2,13.6,4.1,28.2,2.8,43.5
			c-0.9,10.6-2.8,21.5-5.5,32.6c109.6,3.7,185.1-79,186.6-176.9c-12.3,2.5-24.2,3.4-35.5,2.7C374.8,243.5,361.4,240.1,348.9,234.4
			L348.9,234.4z M169.5,312.3L20.1,461.7V494h28.7L200,342.8L169.5,312.3L169.5,312.3z"/>
	</g>
	<g>
		<path class="st0" d="M240.1,19.6c-56.7,0.4-110.9,29-151.6,72.3C35.1,148.7,6.6,229.8,27.5,302c16.3-8.8,32.8-16,48.9-21.4
			c-6.3-123.2,89.2-210.9,200-210.3c4.3-13.4,10.3-27.3,18.1-41.9c-16.3-5.4-32.7-8.4-49-8.8C243.8,19.6,241.9,19.6,240.1,19.6
			L240.1,19.6z M271.3,89c-97.6,1.7-179.9,77.1-176.4,186.3c11-2.7,21.8-4.6,32.3-5.4c14.6-1.2,28.7-0.5,41.8,2.4L278.3,163
			c-5.3-12.1-8.5-25-9.3-38.8c-0.7-11.3,0.1-23,2.6-35.2C271.5,89,271.4,89,271.3,89L271.3,89z M332.1,149.7l-16.9,16.9l30.5,30.4
			l16.8-16.8L332.1,149.7L332.1,149.7z M295,172.7L175.6,292.1l44.6,44.6l119.3-119.3L295,172.7z M484.9,218.8
			c-14.5,7.8-28.3,13.8-41.6,18.1c0.8,111-87.2,206.8-210.7,200.3c-5.4,16.1-12.6,32.5-21.3,48.7c72.2,20.9,153.3-7.6,210.1-61
			C478.5,371.2,509.9,294.1,484.9,218.8L484.9,218.8z M348.9,234.4L240.7,342.6c3.2,13.6,4.1,28.2,2.8,43.5
			c-0.9,10.6-2.8,21.5-5.5,32.6c109.6,3.7,185.1-79,186.6-176.9c-12.3,2.5-24.2,3.4-35.5,2.7C374.8,243.5,361.4,240.1,348.9,234.4
			L348.9,234.4z M169.5,312.3L20.1,461.7V494h28.7L200,342.8L169.5,312.3L169.5,312.3z"/>
	</g>
</g>
</svg>
